<svg width="78.000000" height="64.000000" viewBox="0 0 78 64" fill="none" xmlns="http://www.w3.org/2000/svg" xmlns:xlink="http://www.w3.org/1999/xlink">
	<desc>
			Created with Pixso.
	</desc>
	<defs>
		<clipPath id="clip19_1284">
			<rect id="Icon" width="24.000000" height="24.000000" transform="matrix(1 0 0 -1 28 34)" fill="white" fill-opacity="0"/>
		</clipPath>
	</defs>
	<path id="Войти" d="M26.51 48.5L23.36 48.5L23.36 39.77L26.41 39.77C28.24 39.77 29.09 40.81 29.09 42.08C29.09 43.21 28.42 43.71 27.67 43.91L27.67 44C28.47 44.04 29.43 44.79 29.43 46.18C29.43 47.49 28.58 48.5 26.51 48.5ZM41.45 40.6C42.04 40.6 42.29 40.21 42.29 39.77L43.22 39.77C43.22 40.69 42.54 41.33 41.45 41.33C40.37 41.33 39.7 40.69 39.7 39.77L40.63 39.77C40.63 40.21 40.85 40.6 41.45 40.6ZM24.42 40.71L24.42 43.6L26.38 43.6C27.33 43.6 28.08 43.01 28.08 42.08C28.08 41.32 27.57 40.71 26.41 40.71L24.42 40.71ZM36.96 45.26C36.96 47.29 35.76 48.63 33.99 48.63C32.22 48.63 31.02 47.29 31.02 45.26C31.02 43.21 32.22 41.87 33.99 41.87C35.76 41.87 36.96 43.21 36.96 45.26ZM39.79 41.95L39.79 47.01L42.95 41.95L44.11 41.95L44.11 48.5L43.1 48.5L43.1 43.43L39.97 48.5L38.79 48.5L38.79 41.95L39.79 41.95ZM47.53 42.89L45.36 42.89L45.36 41.95L50.68 41.95L50.68 42.89L48.53 42.89L48.53 48.5L47.53 48.5L47.53 42.89ZM53.45 41.95L53.45 47.01L56.61 41.95L57.76 41.95L57.76 48.5L56.76 48.5L56.76 43.43L53.62 48.5L52.45 48.5L52.45 41.95L53.45 41.95ZM32.03 45.26C32.03 46.57 32.64 47.73 33.99 47.73C35.34 47.73 35.95 46.57 35.95 45.26C35.95 43.95 35.34 42.77 33.99 42.77C32.64 42.77 32.03 43.95 32.03 45.26ZM24.42 44.52L24.42 47.56L26.51 47.56C27.89 47.56 28.42 46.95 28.42 46.18C28.42 45.29 27.71 44.52 26.57 44.52L24.42 44.52Z" fill="#000000" fill-opacity="1.000000" fill-rule="evenodd"/>
	<g clip-path="url(#clip19_1284)">
		<path id="Vector" d="M40 21.98C40.91 21.98 41.75 21.76 42.51 21.31C43.27 20.86 43.87 20.26 44.32 19.5C44.77 18.74 44.99 17.9 44.99 16.99C44.99 16.08 44.77 15.24 44.32 14.48C43.87 13.72 43.27 13.12 42.51 12.67C41.75 12.22 40.91 12 40 12C39.08 12 38.25 12.22 37.48 12.67C36.72 13.12 36.12 13.72 35.67 14.48C35.22 15.24 35 16.08 35 16.99C35 17.9 35.22 18.74 35.67 19.5C36.12 20.26 36.72 20.86 37.48 21.31C38.25 21.76 39.08 21.98 40 21.98ZM40 12.98C40.72 12.98 41.38 13.16 42 13.52C42.62 13.88 43.11 14.37 43.47 14.98C43.83 15.6 44.01 16.27 44.01 16.99C44.01 17.71 43.83 18.38 43.47 18.99C43.11 19.61 42.62 20.1 42 20.46C41.38 20.82 40.72 21 40 21C39.27 21 38.61 20.82 37.99 20.46C37.37 20.1 36.88 19.61 36.52 18.99C36.16 18.38 35.98 17.71 35.98 16.99C35.98 16.27 36.16 15.6 36.52 14.98C36.88 14.37 37.37 13.88 37.99 13.52C38.61 13.16 39.27 12.98 40 12.98ZM40 23.98C38.49 23.98 37.13 24.3 35.91 24.96C34.69 25.62 33.74 26.5 33.05 27.63C32.35 28.79 32 30.08 32 31.49L32 32L48 32L48 31.49C48 30.08 47.64 28.79 46.94 27.63C46.25 26.5 45.3 25.62 44.08 24.96C42.86 24.3 41.5 23.98 40 23.98ZM32.98 30.99C33.06 29.85 33.42 28.83 34.05 27.91C34.68 27 35.51 26.28 36.55 25.76C37.58 25.24 38.73 24.98 40 24.98C41.26 24.98 42.41 25.24 43.44 25.76C44.48 26.28 45.3 27 45.93 27.91C46.55 28.83 46.91 29.85 47.01 30.99L32.98 30.99Z" fill="#000000" fill-opacity="1.000000" fill-rule="nonzero"/>
	</g>
</svg>
